{"title":"Justin Bieber Never Say Never 2011 XViD DVDRip - DTRG - SAFCuk00","uid":6378769,"size":1640467980,"categoryP":"video","categoryS":"movies","magnet":"?xt=urn:btih:830c019ea8b7f2356f79bd18e19601b2dc201d7c&amp;dn=Justin+Bieber+Never+Say+Never+2011+XViD+DVDRip+-+DTRG+-+SAFCuk00&amp;tr=udp%3A%2F%2Ftracker.openbittorrent.com%3A80&amp;tr=udp%3A%2F%2Fopen.demonii.com%3A1337&amp;tr=udp%3A%2F%2Ftracker.coppersurfer.tk%3A6969&amp;tr=udp%3A%2F%2Fexodus.desync.com%3A6969","seeders":1,"leechers":0,"uploader":"SAFCukO09","files":4,"time":1304953934,"description":"Format : AVI\nFormat/Info : Audio Video Interleave\nFile size : 1.52 GiB\nDuration : 1h 45mn\nOverall bit rate : 2 067 Kbps\nWriting library : VirtualDub build 32839/release\n\nVideo\nID : 0\nFormat : MPEG-4 Visual\nFormat profile : Advanced Simple@L5\nFormat settings, BVOP : Yes\nFormat settings, QPel : No\nFormat settings, GMC : No warppoints\nFormat settings, Matrix : Custom\nCodec ID : XVID\nCodec ID/Hint : XviD\nDuration : 1h 45mn\nBit rate : 1 607 Kbps\nWidth : 720 pixels\nHeight : 420 pixels\nDisplay aspect ratio : 16:9\nFrame rate : 29.970 fps\nColor space : YUV\nChroma subsampling : 4:2:0\nBit depth : 8 bits\nScan type : Progressive\nBits/(Pixel*Frame) : 0.177\nStream size : 1.18 GiB (78%)\nWriting library : XviD 1.2.1 (UTC 2008-12-04)\n\nAudio\nID : 1\nFormat : AC-3\nFormat/Info : Audio Coding 3\nMode extension : CM (complete main)\nCodec ID : 2000\nDuration : 1h 45mn\nBit rate mode : Constant\nBit rate : 448 Kbps\nChannel(s) : 6 channels\nChannel positions : Front: L C R, Side: L R, LFE\nSampling rate : 48.0 KHz\nBit depth : 16 bits\nStream size : 337 MiB (22%)\nAlignment : Aligned on interleaves\nInterleave, duration : 33 ms (1.00 video frame)\nInterleave, preload duration : 512 ms\n\n\n\n &lt;a href=&quot;\nhttp://www.imdb.com/title/tt1702443/&quot; rel=&quot;nofollow&quot; target=&quot;_NEW&quot;&gt;\nhttp://www.imdb.com/title/tt1702443/&lt;/a&gt;\n\n\n\n\n\n\n\n\nUsers: 1.2/10 (37,371 votes) 162 reviews | Critics: 75 reviews Metascore: 52/100 (based on 22 reviews from Metacritic.com)\n\nFollows Justin Bieber with some footage of performances from his 2010 concert tour.\nDirector:\nJon Chu\nStars:\nJustin Bieber, Boys II Men and Miley Cyrus\n\n\n\n\n\n\n\n\n\n\n\n\n\n\nSource used\n\nJustin.Bieber.Never.Say.Never.2011.NTSC.DVDR-TDP ......... Thanks\n\nBit of a strange one this and we all know the issues the Defaced release had ,the vobs were in sync but no matter what i used to do the encode it would take it way outta sync /all over the place so in the end just synced it the best i could.If theres slight oos time to time well then one thing im not is a syncer but gave it a go...Was it worth it hell no Justin bieber talk about embarrassing all you gotta do is check out the imdb rating boy thats bad . Im off to hide now and dont be telling fibs saying my daughter wants this or my neice you wanna sit alone and watch it i just know you do and so does everyone else ...\n\nCheck out the sample 1st\n\n\n\nGreetz to Imagine ,Flawl3ss,DiLLoN,BDK,NOiR,TOXiCiNK,THC,Ez,Rx,Boobyblue,TaRiQ786,LKRG","torrent":{"xt":"urn:btih:830c019ea8b7f2356f79bd18e19601b2dc201d7c","amp;dn":"Justin+Bieber+Never+Say+Never+2011+XViD+DVDRip+-+DTRG+-+SAFCuk00","amp;tr":["udp%3A%2F%2Ftracker.openbittorrent.com%3A80","udp%3A%2F%2Fopen.demonii.com%3A1337","udp%3A%2F%2Ftracker.coppersurfer.tk%3A6969","udp%3A%2F%2Fexodus.desync.com%3A6969"],"infoHash":"830c019ea8b7f2356f79bd18e19601b2dc201d7c","infoHashBuffer":{"type":"Buffer","data":[131,12,1,158,168,183,242,53,111,121,189,24,225,150,1,178,220,32,29,124]},"announce":[],"urlList":[]}}